<svg width="22" height="22" viewBox="0 0 22 22" fill="none" xmlns="http://www.w3.org/2000/svg">
<path d="M20.1663 10.1567V11C20.1652 12.9768 19.5251 14.9002 18.3416 16.4834C17.158 18.0666 15.4944 19.2248 13.5988 19.7853C11.7032 20.3458 9.67716 20.2784 7.82294 19.5934C5.96872 18.9084 4.38561 17.6423 3.30972 15.984C2.23384 14.3257 1.72282 12.3641 1.85288 10.3917C1.98294 8.41922 2.74711 6.54167 4.03143 5.03902C5.31575 3.53637 7.05139 2.48914 8.97951 2.05351C10.9076 1.61787 12.9249 1.81718 14.7305 2.62171" fill="#92CC1F"/>
<path d="M20.1663 10.1567V11C20.1652 12.9768 19.5251 14.9002 18.3416 16.4834C17.158 18.0666 15.4944 19.2248 13.5988 19.7853C11.7032 20.3458 9.67716 20.2784 7.82294 19.5934C5.96872 18.9084 4.38561 17.6423 3.30972 15.984C2.23384 14.3257 1.72282 12.3641 1.85288 10.3917C1.98294 8.41922 2.74711 6.54167 4.03143 5.03902C5.31575 3.53637 7.05139 2.48914 8.97951 2.05351C10.9076 1.61787 12.9249 1.81718 14.7305 2.62171C15.7543 2.98059 17.4685 4.02899 18.7086 5.92311C19.4355 7.03329 19.9996 8.43401 20.1663 10.1567Z" fill="#92CC1F"/>
<path d="M20.1663 10.1567V11C20.1652 12.9768 19.5251 14.9002 18.3416 16.4834C17.158 18.0666 15.4944 19.2248 13.5988 19.7853C11.7032 20.3458 9.67716 20.2784 7.82294 19.5934C5.96872 18.9084 4.38561 17.6423 3.30972 15.984C2.23384 14.3257 1.72282 12.3641 1.85288 10.3917C1.98294 8.41922 2.74711 6.54167 4.03143 5.03902C5.31575 3.53637 7.05139 2.48914 8.97951 2.05351C10.9076 1.61787 12.9249 1.81718 14.7305 2.62171C15.7543 2.98059 17.4685 4.02899 18.7086 5.92311C19.4355 7.03329 19.9996 8.43401 20.1663 10.1567Z" stroke="#92CC1F" stroke-width="2" stroke-linecap="round" stroke-linejoin="round"/>
<path d="M14.9575 8.88452L13.5381 10.304L10.1535 13.6886L8.03809 11.5732" stroke="#15202B" stroke-width="2" stroke-linecap="round" stroke-linejoin="round"/>
</svg>
